<svg width="30" height="38" viewBox="0 0 35 46" fill="none" xmlns="http://www.w3.org/2000/svg">
<path d="M34.9801 35.8652C34.8966 35.195 34.5731 34.6222 34.0886 34.2819L26.9211 28.797L26.8621 28.7541C26.5615 28.5587 26.2296 28.4586 25.8936 28.4619C25.2931 28.4619 24.7196 28.7574 24.3216 29.2756L22.2061 32.0246C22.1156 32.1363 21.8206 32.298 21.7311 32.3038C21.7066 32.3012 19.2696 32.0733 14.7831 26.2454C10.3046 20.4299 10.1146 17.2549 10.1131 17.2549C10.1156 17.0926 10.2386 16.7107 10.3261 16.5925L12.1301 14.2501C12.7656 13.4227 12.9561 12.0512 12.5791 10.9887L8.59508 1.25207C8.30558 0.477968 7.74308 0 7.11908 0C6.67758 0 6.25158 0.237686 5.91858 0.669546L1.00108 7.04225C0.529583 7.6514 0.123583 8.71644 0.0350832 9.57366C-0.0079168 9.98344 -0.880416 19.7649 9.44458 33.1773C18.2101 44.5608 25.0451 45.4453 26.9326 45.4453C27.1624 45.4492 27.3922 45.4338 27.6206 45.3992C28.2786 45.2849 29.0976 44.7589 29.5661 44.1491L34.4796 37.768C34.8806 37.2445 35.0636 36.5529 34.9801 35.8652Z" fill="black"/>
</svg>
